<svg version="1.2" baseProfile="tiny-ps" xmlns="http://www.w3.org/2000/svg" viewBox="0 0 58 58" width="58" height="58">
	<title>SLIDER</title>
	<style>
		tspan { white-space:pre }
		.shp0 { fill: none;stroke: #ffffff;stroke-width: 2 } 
	</style>
	<g id="SLIDER">
		<g id="SLIDER_NAV">
			<path id="LEFT_BUTTON_ACTIVE" fill-rule="evenodd" class="shp0" d="M10 0L48 0C53.52 0 58 4.48 58 10L58 48C58 53.52 53.52 58 48 58L10 58C4.48 58 0 53.52 0 48L0 10C0 4.48 4.48 0 10 0ZM31.21 39.98C32.53 41.35 34.66 41.35 35.98 39.98C37.3 38.62 37.3 36.41 35.98 35.05L30.13 29L35.98 22.94C37.3 21.58 37.3 19.37 35.98 18.01C34.66 16.65 32.53 16.65 31.21 18.01L22.97 26.53C21.65 27.89 21.65 30.1 22.97 31.46C22.97 31.46 22.97 31.46 22.97 31.46L31.21 39.98Z" />
		</g>
	</g>
</svg>