<svg id="Layer_1" data-name="Layer 1" xmlns="http://www.w3.org/2000/svg" viewBox="0 0 512 512"><defs><style>.cls-1{fill:#141f38;}</style></defs><title>chat-bubble-smile-outline</title><path class="cls-1" d="M105,229.74a6.56,6.56,0,0,1,6.56-6.56h65.64a6.56,6.56,0,0,1,0,13.13H111.59A6.56,6.56,0,0,1,105,229.74Zm6.56,59.08h105a6.56,6.56,0,1,0,0-13.13h-105a6.56,6.56,0,1,0,0,13.13Zm183.79,39.38H111.59a6.56,6.56,0,0,0,0,13.13H295.38a6.56,6.56,0,1,0,0-13.13ZM512,164.1A124.91,124.91,0,0,1,407,287.26V347.9a72.28,72.28,0,0,1-72.2,72.2H114.31L63.72,470.69a6.55,6.55,0,0,1-4.64,1.93,6.74,6.74,0,0,1-2.52-.5,6.57,6.57,0,0,1-4-6.07V417.38A72.45,72.45,0,0,1,0,347.9V216.62a72.29,72.29,0,0,1,72.21-72.21H264.12A124.72,124.72,0,0,1,512,164.1ZM393.85,288.65q-3.27.17-6.57.17A124.86,124.86,0,0,1,262.56,164.1q0-3.3.17-6.56H72.21a59.14,59.14,0,0,0-59.08,59.08V347.9a59.23,59.23,0,0,0,47.25,57.89,6.56,6.56,0,0,1,5.26,6.43v38L107,408.9a6.57,6.57,0,0,1,4.64-1.93H334.77a59.15,59.15,0,0,0,59.08-59.07Zm105-124.55a111.6,111.6,0,0,0-221.44-19.69,109.2,109.2,0,0,0-1.54,13.13c-.14,2.17-.2,4.36-.2,6.56A111.72,111.72,0,0,0,387.28,275.69c2.21,0,4.4-.06,6.57-.2A109,109,0,0,0,407,274,111.78,111.78,0,0,0,498.87,164.1ZM361,151a13.13,13.13,0,1,0-13.13-13.13A13.13,13.13,0,0,0,361,151Zm52.51-26.26a13.13,13.13,0,1,0,13.13,13.13A13.13,13.13,0,0,0,413.54,124.72Zm7.37,60.73a6.56,6.56,0,0,0-9.26.56,32.65,32.65,0,0,1-48.73,0,6.56,6.56,0,1,0-9.83,8.71,45.77,45.77,0,0,0,68.38,0A6.57,6.57,0,0,0,420.91,185.45Z"/></svg>